<?xml version="1.0" encoding="UTF-8"?>
<!DOCTYPE svg PUBLIC "-//W3C//DTD SVG 1.1//EN" "http://www.w3.org/Graphics/SVG/1.1/DTD/svg11.dtd">
<!-- Creator: CorelDRAW -->
<svg xmlns="http://www.w3.org/2000/svg" xml:space="preserve" width="5.19988in" height="0.934228in" style="shape-rendering:geometricPrecision; text-rendering:geometricPrecision; image-rendering:optimizeQuality; fill-rule:evenodd; clip-rule:evenodd"
viewBox="0 0 59.06 10.6109"
 xmlns:xlink="http://www.w3.org/1999/xlink">
 <defs>
  <style type="text/css">
   <![CDATA[
    .fil2 {fill:#00CAED}
    .fil0 {fill:#25DEF4}
    .fil1 {fill:#4B4B4B;fill-rule:nonzero}
   ]]>
  </style>
 </defs>
 <g id="Layer_x0020_1">
  <metadata id="CorelCorpID_0Corel-Layer"/>
  <g id="_351608056">
   <path id="_351608608" class="fil0" d="M10.6292 8.33901c-0.124982,0.0712778 -0.258684,0.129051 -0.399272,0.171577 -0.193219,0.0611272 -0.393459,0.0947986 -0.591284,0.0989572l1.44702 -0.611406c-0.128694,0.12923 -0.280908,0.243615 -0.456464,0.340873zm-1.37015 0.240619c-0.0909083,-0.0168133 -0.179983,-0.0406024 -0.266107,-0.0716355l2.45555 -1.03755c-0.0368462,0.0828593 -0.0799975,0.162454 -0.12923,0.238606l-2.06021 0.870582zm-0.484546 -0.169698c-0.0630947,-0.0337161 -0.123238,-0.069668 -0.18052,-0.107766l2.98508 -1.26127c-0.0124759,0.0697127 -0.0286184,0.137771 -0.04807,0.204309l-2.75649 1.16473zm-0.344137 -0.228992c-0.0485619,-0.0400658 -0.0946644,-0.0818756 -0.138218,-0.125653l3.31961 -1.40266c0.000223582,0.0632736 -0.00201223,0.125653 -0.00693103,0.187004l-3.17446 1.34131zm-0.262261 -0.263558c-0.0366227,-0.0451188 -0.0710542,-0.0919368 -0.103339,-0.140365l3.51314 -1.48445c0.0105978,0.0557165 0.0191386,0.113356 0.0249517,0.173499l-3.43475 1.45131zm-0.194561 -0.292221c-0.0266956,-0.0494115 -0.0514238,-0.100254 -0.0742738,-0.152617l3.58808 -1.51606c0.0178418,0.0531677 0.0347893,0.10714 0.0500823,0.162812l-3.56389 1.50587zm-0.137726 -0.316144c-0.0174394,-0.0507977 -0.0332689,-0.102892 -0.0475782,-0.156149l-0.00286184 -0.00661802 3.58701 -1.51566c0.0184678,0.0536596 0.0376511,0.106738 0.0568792,0.16004l-3.59345 1.51839zm-0.140722 -0.314892c-0.0423016,-0.0520051 -0.0913554,-0.0924733 -0.145149,-0.122702l3.72715 -1.57491c0.0118498,0.0571027 0.0260249,0.112462 0.0416756,0.166479l-3.62368 1.53113zm-0.425878 -0.194561c-0.167194,-0.00389032 -0.34995,0.046505 -0.520677,0.129633 -0.136698,0.0666273 -0.27581,0.16545 -0.424447,0.269774l-1.15493 0.487989c-0.072351,0.0024594 -0.147206,-0.000536596 -0.225057,-0.00979287 -0.044761,-0.00487408 -0.0889408,-0.0126547 -0.132271,-0.0232078l6.42663 -2.71549c0.000447163,0.0625134 0.00406919,0.12221 0.0102848,0.17967l-3.97953 1.68142zm-2.69756 0.765543c-0.0616638,-0.0310331 -0.121092,-0.0676111 -0.177882,-0.108974l2.81181 -1.18811c0.217634,0.0622004 0.452484,-0.00679688 0.60765,-0.256672l3.4576 -1.46102c-0.0100612,0.065733 -0.0178865,0.130706 -0.0237444,0.194114l-6.67543 2.82066zm-0.328352 -0.2357c-0.042883,-0.041452 -0.0836195,-0.0857659 -0.122031,-0.132494l2.74268 -1.15882c0.0409154,0.0488749 0.0863919,0.0915343 0.134909,0.127039l-2.75555 1.16428zm-0.228858 -0.277733c-0.0311673,-0.0473993 -0.0601434,-0.0967214 -0.0867049,-0.14734l2.75278 -1.16321c0.0283501,0.0487408 0.0563426,0.0982865 0.0838878,0.148592l-2.74996 1.16195zm-0.160442 -0.30653c-0.0211955,-0.0525417 -0.039887,-0.106112 -0.0559848,-0.160442l2.69376 -1.13816c0.0331348,0.0463261 0.0651517,0.0941279 0.0964978,0.143226l-2.73427 1.15538zm-0.0975263 -0.333137c-0.0108213,-0.0577735 -0.0184231,-0.115994 -0.0228053,-0.174438l2.52719 -1.06787c0.0418545,0.0420781 0.0818756,0.0865708 0.12051,0.133165l-2.62489 1.10914zm-0.0253542 -0.363767c0.000894326,-0.0183784 0.00205695,-0.0368462 0.00362202,-0.0551799 0.00415862,-0.0473099 0.0108213,-0.0934571 0.0196752,-0.138665l2.19584 -0.927819c0.0583995,0.0340291 0.113624,0.0720827 0.166255,0.113714l-2.38539 1.00795zm0.0863919 -0.410898c0.032464,-0.0833065 0.0730665,-0.161828 0.120913,-0.235118l1.52827 -0.645748c0.0791032,0.01261 0.15758,0.0316592 0.234448,0.0573263 0.0120734,0.00402447 0.0239232,0.00813837 0.0357283,0.0124759l-1.91936 0.811065zm0.396321 -0.541828c0.229484,-0.190044 0.519425,-0.31136 0.821618,-0.347178l-0.821618 0.347178zm3.71709 0.675753c0.0437326,-0.0864366 0.0933677,-0.168849 0.148369,-0.246745l3.27999 -1.38594c-0.0190044,0.0680135 -0.0359072,0.136743 -0.0506636,0.205516l-3.37769 1.42717zm0.412374 -0.548714c0.319275,-0.296737 0.735494,-0.482802 1.18954,-0.513835l0.0380089 -0.00478465 -1.22755 0.51862zm2.20961 -0.933587c0.0684607,-0.0776722 0.126145,-0.164422 0.17332,-0.257298l0.796711 -0.336624c-0.0339844,0.0710989 -0.0649281,0.145999 -0.0930994,0.223358l-0.876932 0.370564zm0.264899 -0.486379c0.0200776,-0.0664932 0.0355942,-0.134641 0.046505,-0.203638l1.2132 -0.512673c-0.057058,0.0340291 -0.11273,0.0689078 -0.166121,0.105307 -0.0897457,0.0612614 -0.171219,0.147832 -0.243972,0.252021l-0.84961 0.358983zm0.0651517 -0.401866c0.0019228,-0.0608589 0.000223582,-0.121673 -0.00496351,-0.181951l2.4539 -1.03693c-0.0668509,0.109108 -0.15208,0.204175 -0.249517,0.289538l-2.19942 0.929339zm-0.0311226 -0.361263c-0.0117604,-0.0563426 -0.0267851,-0.111478 -0.0449399,-0.165048l2.67283 -1.12936c-0.00804894,0.0715014 -0.0220004,0.138531 -0.0413626,0.201402l-2.58653 1.093zm-0.107409 -0.329067c-0.0210614,-0.0525417 -0.0426147,-0.10477 -0.0643468,-0.156775l2.80215 -1.18404c0.00585784,0.0586231 0.00867497,0.118722 0.0084961,0.180386l-2.7463 1.16043zm-0.131824 -0.318648c-0.0217768,-0.0525417 -0.0430171,-0.104949 -0.0633183,-0.157267l2.8597 -1.20841c0.0178865,0.0532571 0.0332689,0.108035 0.0454765,0.164824l-2.84186 1.20086zm-0.123551 -0.322181c-0.0183784,-0.0541962 -0.0352812,-0.108527 -0.0499034,-0.162991l2.82249 -1.19263c0.0298705,0.0476676 0.0574158,0.0974816 0.0820544,0.149397l-2.85465 1.20622zm-0.0885383 -0.336982c-0.0100165,-0.0581312 -0.0170369,-0.11662 -0.0202118,-0.175556l2.65494 -1.1218c0.0431065,0.0414073 0.0837089,0.0857212 0.121763,0.132584l-2.75649 1.16477zm-0.0167686 -0.367345c0.0060367,-0.0654647 0.0174841,-0.131645 0.0349682,-0.198764l2.29314 -0.969003c0.0600093,0.0331348 0.117783,0.0701599 0.173052,0.110941l-2.50116 1.05683zm0.116173 -0.423464c0.0118945,-0.0257119 0.0246387,-0.0515579 0.0385455,-0.0776275 0.0311226,-0.0581312 0.0644809,-0.112775 0.0994938,-0.16469l1.59508 -0.673964c0.0895221,0.0169028 0.177479,0.0412732 0.262753,0.0728876l-1.99587 0.843394zm0.393012 -0.540441c0.275855,-0.253676 0.611988,-0.381877 0.94973,-0.401329l-0.94973 0.401329z"/>
   <path id="_351608224" class="fil1" d="M16.4604 7.85442l0 -7.24494 3.4051 0c0.489912,0 0.917668,0.0828593 1.28336,0.248444 0.365779,0.165585 0.652098,0.398422 0.85909,0.698603 0.207037,0.300136 0.31051,0.646822 0.31051,1.04015 0,0.317441 -0.0810707,0.608902 -0.243212,0.874562 -0.162186,0.26566 -0.381251,0.481282 -0.65724,0.646866 0.351917,0.165585 0.63135,0.389882 0.838297,0.672802 0.207037,0.282831 0.31051,0.603715 0.31051,0.962474 0,0.414028 -0.105173,0.779718 -0.315652,1.09716 -0.21048,0.317352 -0.507128,0.564007 -0.890123,0.739966 -0.382951,0.175959 -0.826223,0.263916 -1.32995,0.263916l-3.57069 0zm1.50072 -4.28485l1.81123 0c0.324327,0 0.581312,-0.0775828 0.771088,-0.232883 0.189776,-0.15521 0.284619,-0.363946 0.284619,-0.626118 0,-0.262216 -0.0948433,-0.470952 -0.284619,-0.626207 -0.189776,-0.15521 -0.446761,-0.232838 -0.771088,-0.232838l-1.81123 0 0 1.71805zm0 3.0429l1.95612 0c0.345031,0 0.62102,-0.0845138 0.827967,-0.253586 0.207037,-0.169072 0.310555,-0.395024 0.310555,-0.677944 0,-0.289762 -0.103518,-0.519201 -0.310555,-0.688274 -0.206947,-0.169028 -0.482936,-0.253586 -0.827967,-0.253586l-1.95612 0 0 1.87339zm5.55793 1.24195l0 -5.3923 1.41791 0 0 5.3923 -1.41791 0zm0.703745 -6.03398c-0.220809,0 -0.410496,-0.0793268 -0.569239,-0.23807 -0.158654,-0.158654 -0.238025,-0.34843 -0.238025,-0.569239 0,-0.227651 0.0793715,-0.419171 0.238025,-0.574381 0.158743,-0.1553 0.34843,-0.232883 0.569239,-0.232883 0.22774,0 0.419215,0.0775828 0.574471,0.232883 0.15521,0.15521 0.232838,0.34673 0.232838,0.574381 0,0.220809 -0.0776275,0.410585 -0.232838,0.569239 -0.155255,0.158743 -0.34673,0.23807 -0.574471,0.23807zm4.45053 6.13745c-0.538206,0 -1.02467,-0.124177 -1.45936,-0.372532 -0.434687,-0.248444 -0.779718,-0.583101 -1.035,-1.00397 -0.255285,-0.420915 -0.382951,-0.893521 -0.382951,-1.41795 0,-0.524344 0.125966,-0.998739 0.377808,-1.4231 0.251798,-0.424358 0.596873,-0.760714 1.035,-1.00907 0.43813,-0.248444 0.926299,-0.372621 1.4645,-0.372621 0.538161,0 1.02633,0.124177 1.46446,0.372621 0.43822,0.248354 0.783162,0.584711 1.035,1.00907 0.251842,0.424358 0.377763,0.898753 0.377763,1.4231 0,0.524433 -0.125921,0.99704 -0.377763,1.41795 -0.251842,0.42087 -0.595085,0.755527 -1.02977,1.00397 -0.434732,0.248354 -0.924599,0.372532 -1.46969,0.372532zm0 -1.23162c0.282875,0 0.536462,-0.0689973 0.760714,-0.206947 0.224252,-0.138039 0.403654,-0.326027 0.538161,-0.564096 0.134551,-0.238025 0.201849,-0.501941 0.201849,-0.791792 0,-0.296648 -0.0672981,-0.562308 -0.201849,-0.79689 -0.134507,-0.234671 -0.313909,-0.422659 -0.538161,-0.564096 -0.224252,-0.141438 -0.477839,-0.212179 -0.760714,-0.212179 -0.275989,0 -0.527876,0.0707412 -0.755527,0.212179 -0.22774,0.141438 -0.407142,0.329425 -0.53825,0.564096 -0.131064,0.234582 -0.196618,0.500241 -0.196618,0.79689 0,0.289851 0.0655541,0.553767 0.196618,0.791792 0.131108,0.23807 0.31051,0.426057 0.53825,0.564096 0.227651,0.13795 0.479538,0.206947 0.755527,0.206947zm6.2927 1.24204c-0.579568,0 -1.12122,-0.119035 -1.62495,-0.357105 -0.503685,-0.238025 -0.945258,-0.581312 -1.32477,-1.02982l0.372576 -0.31051c0.345031,0.407097 0.736612,0.717607 1.17474,0.931486 0.43813,0.213923 0.905595,0.320884 1.40239,0.320884 0.414028,0 0.783162,-0.0724404 1.10744,-0.217366 0.324283,-0.144881 0.579568,-0.343287 0.765901,-0.595085 0.186288,-0.251887 0.279432,-0.536506 0.279432,-0.853858 0,-0.420915 -0.143182,-0.743498 -0.4295,-0.967751 -0.286363,-0.224252 -0.767645,-0.391536 -1.4438,-0.501941l-0.879749 -0.14497c-0.724539,-0.117246 -1.25581,-0.320795 -1.59391,-0.610601 -0.338055,-0.289806 -0.507128,-0.68653 -0.507128,-1.19026 0,-0.386394 0.101774,-0.724449 0.305323,-1.01426 0.203549,-0.289851 0.488168,-0.517502 0.853858,-0.683086 0.36569,-0.165629 0.783117,-0.248444 1.25237,-0.248444 0.47605,0 0.952145,0.0810707 1.42824,0.243257 0.476095,0.162141 0.928087,0.40191 1.35584,0.719307l-0.289806 0.393325c-0.814195,-0.607203 -1.64561,-0.910827 -2.49428,-0.910827 -0.372621,0 -0.703835,0.062111 -0.993597,0.186288 -0.289806,0.124222 -0.517502,0.298437 -0.683131,0.522689 -0.165585,0.224252 -0.248354,0.481237 -0.248354,0.771088 0,0.379463 0.12762,0.674412 0.382951,0.884891 0.255285,0.210435 0.683086,0.363991 1.28336,0.460533l0.879749 0.14497c0.821036,0.131064 1.41102,0.350129 1.76983,0.657151 0.358759,0.307112 0.538206,0.746941 0.538206,1.31967 0,0.400166 -0.113848,0.757226 -0.341588,1.07118 -0.227651,0.313953 -0.539905,0.560608 -0.936628,0.74001 -0.396768,0.179447 -0.85046,0.269148 -1.36103,0.269148zm3.66388 -0.113892l0 -5.09212 0.455391 0 0 5.09212 -0.455391 0zm0.227651 -6.24101c-0.11036,0 -0.203549,-0.0378747 -0.279388,-0.113803 -0.0758836,-0.0758836 -0.113848,-0.169028 -0.113848,-0.279432 0,-0.110405 0.0379642,-0.203549 0.113848,-0.279477 0.0758389,-0.0758836 0.169028,-0.113848 0.279388,-0.113848 0.117336,0 0.212179,0.0379642 0.284619,0.113848 0.0724852,0.0759283 0.108705,0.169072 0.108705,0.279477 0,0.110405 -0.0362202,0.203549 -0.108705,0.279432 -0.0724404,0.0759283 -0.167284,0.113803 -0.284619,0.113803zm1.63537 6.24101l0 -5.09212 0.455391 0 0 0.662383c0.39328,-0.510571 0.917668,-0.765901 1.57316,-0.765901 0.36569,0 0.693461,0.0914002 0.983267,0.274245 0.289762,0.182845 0.510571,0.429545 0.662383,0.74001 0.213878,-0.331169 0.467464,-0.583011 0.760714,-0.755482 0.29325,-0.172516 0.629606,-0.258773 1.00911,-0.258773 0.36569,0 0.68653,0.0810707 0.962519,0.243212 0.275989,0.162141 0.491656,0.389882 0.646911,0.683131 0.15521,0.29325 0.232838,0.633049 0.232838,1.01944l0 3.24985 -0.455391 0 0 -3.12567c0,-0.510571 -0.131108,-0.912526 -0.39328,-1.20573 -0.262216,-0.29325 -0.627907,-0.439874 -1.09711,-0.439874 -0.338055,0 -0.634748,0.087957 -0.890078,0.263916 -0.255285,0.175959 -0.469208,0.415728 -0.641679,0.719307 0.0206589,0.0897009 0.0362202,0.177703 0.0465944,0.263916 0.0103295,0.0863025 0.0154718,0.177703 0.0154718,0.27429l0 3.24985 -0.455391 0 0 -3.12567c0,-0.510571 -0.131108,-0.912526 -0.393325,-1.20573 -0.262127,-0.29325 -0.627862,-0.439874 -1.09707,-0.439874 -0.317396,0 -0.598573,0.0776275 -0.843529,0.232838 -0.244911,0.155255 -0.453602,0.374365 -0.626118,0.65724l0 3.8812 -0.455391 0z"/>
   <path id="_351608656" class="fil1" d="M16.4446 10.1746l0 -1.42708 0.578987 0c0.0923839,0 0.172247,0.01498 0.239545,0.0448505 0.0672981,0.0298705 0.119258,0.0723957 0.155926,0.127442 0.0367568,0.0550011 0.0550905,0.119929 0.0550905,0.194695 0,0.0733795 -0.0193622,0.137279 -0.0580865,0.191654 -0.0387243,0.054375 -0.0921156,0.0957824 -0.160084,0.124311 0.0856318,0.025846 0.153243,0.0686843 0.202833,0.128425 0.0496351,0.0598304 0.0744527,0.131153 0.0744527,0.214102 0,0.0815178 -0.0200776,0.152527 -0.0601434,0.213073 -0.0401105,0.0604565 -0.0964978,0.106961 -0.169251,0.139604 -0.0727087,0.0326429 -0.157938,0.0489197 -0.255822,0.0489197l-0.603447 0zm0.156954 -0.805296l0.41385 0c0.0924733,0 0.166166,-0.0217321 0.221212,-0.0651964 0.0550905,-0.043509 0.082591,-0.102669 0.082591,-0.17739 0,-0.0747657 -0.0275005,-0.133881 -0.082591,-0.177345 -0.0550458,-0.043509 -0.128738,-0.0652858 -0.221212,-0.0652858l-0.41385 0 0 0.485217zm0 0.668733l0.43424 0c0.103339,0 0.185528,-0.0244598 0.246745,-0.0733795 0.0611272,-0.0489644 0.0917132,-0.114205 0.0917132,-0.195723 0,-0.0815626 -0.030586,-0.146804 -0.0917132,-0.195723 -0.0612166,-0.0489644 -0.143405,-0.0733795 -0.246745,-0.0733795l-0.43424 0 0 0.538206zm1.15395 0.136564l0 -1.02137 0.150873 0 0 1.02137 -0.150873 0zm0.0754364 -1.21704c-0.0271875,0 -0.0509766,-0.01024 -0.0713225,-0.0306307 -0.0204354,-0.0203459 -0.0306307,-0.0448505 -0.0306307,-0.0733795 0,-0.0271875 0.0101953,-0.0506189 0.0306307,-0.0703388 0.0203459,-0.0197199 0.044135,-0.0295575 0.0713225,-0.0295575 0.028529,0 0.0526758,0.00983759 0.072351,0.0295575 0.0197199,0.0197199 0.0296022,0.043822 0.0296022,0.0723957 0,0.0271875 -0.00988231,0.0509766 -0.0296022,0.0713225 -0.0196752,0.0203906 -0.043822,0.0306307 -0.072351,0.0306307zm0.807353 1.23743c-0.0964978,0 -0.1845,-0.0234314 -0.264005,-0.0702941 -0.0795056,-0.0469074 -0.142377,-0.110449 -0.188569,-0.19067 -0.0462367,-0.0801764 -0.0693103,-0.169877 -0.0693103,-0.269103 0,-0.0992255 0.0230736,-0.188882 0.0693103,-0.269103 0.046192,-0.0801764 0.109063,-0.143718 0.188569,-0.190626 0.0795056,-0.0468627 0.167507,-0.0702941 0.264005,-0.0702941 0.097884,0 0.186199,0.0234314 0.265034,0.0702941 0.0787902,0.0469074 0.141348,0.110449 0.18754,0.190626 0.046192,0.0802211 0.0693103,0.169877 0.0693103,0.269103 0,0.0992255 -0.0231183,0.188926 -0.0693103,0.269103 -0.046192,0.0802211 -0.10875,0.143763 -0.18754,0.19067 -0.0788349,0.0468627 -0.16715,0.0702941 -0.265034,0.0702941zm0 -0.134551c0.0693103,0 0.132137,-0.0176629 0.188569,-0.0530336 0.0563873,-0.0352812 0.101282,-0.0828593 0.134551,-0.14269 0.0332689,-0.0597857 0.0499928,-0.126368 0.0499928,-0.199793 0,-0.074721 -0.0167239,-0.141661 -0.0499928,-0.200821 -0.0332689,-0.059115 -0.0781641,-0.106335 -0.134551,-0.141661 -0.056432,-0.0353706 -0.119258,-0.0529888 -0.188569,-0.0529888 -0.0693103,0 -0.132226,0.0176182 -0.188569,0.0529888 -0.0563873,0.0353259 -0.101282,0.0825463 -0.134551,0.141661 -0.0333584,0.0591597 -0.0499928,0.1261 -0.0499928,0.200821 0,0.0734242 0.0166345,0.140007 0.0499928,0.199793 0.0332689,0.0598304 0.0781641,0.107409 0.134551,0.14269 0.0563426,0.0353706 0.119258,0.0530336 0.188569,0.0530336zm0.731872 0.114161l0 -1.02137 0.150873 0 0 0.112104c0.0774934,-0.0883147 0.177345,-0.132494 0.299733,-0.132494 0.0719933,0 0.135893,0.0166345 0.191654,0.0499481 0.0556718,0.0332689 0.0991808,0.0784771 0.130438,0.135535 0.0421228,-0.0625134 0.0924286,-0.109018 0.150873,-0.139604 0.0584442,-0.030586 0.124982,-0.0458789 0.199748,-0.0458789 0.0747657,0 0.140007,0.0166345 0.195768,0.0499481 0.0556718,0.0332689 0.0995385,0.0795056 0.131466,0.138621 0.0319275,0.0591597 0.0478912,0.128068 0.0478912,0.206947l0 0.64624 -0.148771 0 0 -0.615699c0,-0.0910424 -0.0237891,-0.162723 -0.071412,-0.215085 -0.0475334,-0.0522734 -0.112104,-0.0784771 -0.193666,-0.0784771 -0.0556718,0 -0.106648,0.0139515 -0.152885,0.0418098 -0.046192,0.027903 -0.0856318,0.0696233 -0.11823,0.125385 0.0027277,0.0149353 0.00505294,0.0302729 0.00710989,0.0458342 0.00205695,0.0156954 0.00308543,0.0323299 0.00308543,0.0499928l0 0.64624 -0.148861 0 0 -0.615699c0,-0.0910424 -0.0237891,-0.162723 -0.0713672,-0.215085 -0.0475334,-0.0522734 -0.111433,-0.0784771 -0.191609,-0.0784771 -0.054375,0 -0.103652,0.0125653 -0.147832,0.0377406 -0.044135,0.0251306 -0.0818756,0.0621557 -0.113132,0.11112l0 0.760401 -0.150873 0zm2.23036 0.0183784c-0.0978393,0 -0.186556,-0.0234761 -0.266062,-0.0703835 -0.0795056,-0.0468627 -0.14269,-0.110405 -0.189597,-0.190581 -0.0468627,-0.0801764 -0.0703388,-0.169877 -0.0703388,-0.269148 0,-0.0977946 0.0224476,-0.186512 0.0672981,-0.266062 0.0448058,-0.0794609 0.105307,-0.14269 0.181414,-0.189508 0.0761519,-0.0469074 0.161023,-0.0703835 0.254838,-0.0703835 0.0910871,0 0.172963,0.0234761 0.245716,0.0703835 0.072664,0.046818 0.130438,0.110047 0.173276,0.189508 0.0427935,0.0795503 0.0642126,0.168268 0.0642126,0.266062l0 0.0469074 -0.837939 0c0.00818309,0.0666273 0.0296022,0.126413 0.0642574,0.179402 0.0346551,0.0530336 0.0798186,0.0947986 0.135535,0.125385 0.0557165,0.030586 0.116888,0.0458789 0.183516,0.0458789 0.0529888,0 0.104636,-0.00813837 0.154897,-0.0244598 0.0503059,-0.0163215 0.0924286,-0.0394398 0.126413,-0.0693103l0.0937701 0.0998963c-0.057058,0.0421228 -0.116531,0.0737372 -0.178373,0.0947986 -0.0618427,0.0210614 -0.129454,0.0316144 -0.202833,0.0316144zm-0.373068 -0.603491l0.682952 0c-0.00813837,-0.0611272 -0.0281713,-0.115815 -0.0601434,-0.164109 -0.0319275,-0.0482042 -0.0716803,-0.0862578 -0.119258,-0.114116 -0.0475782,-0.027903 -0.0998963,-0.0418098 -0.156954,-0.0418098 -0.0584442,0 -0.112193,0.013549 -0.161113,0.0407366 -0.0489197,0.0271875 -0.0897009,0.0649281 -0.122299,0.113177 -0.0326429,0.0482042 -0.0537043,0.103652 -0.0631842,0.166121zm1.51065 0.601434c-0.0951116,0 -0.181727,-0.0234314 -0.259891,-0.0703388 -0.0781641,-0.0468627 -0.140007,-0.110092 -0.185528,-0.189597 -0.0455659,-0.0795056 -0.0682818,-0.168849 -0.0682818,-0.268119 0,-0.0991808 0.0227159,-0.188211 0.0682818,-0.267046 0.0455212,-0.0787902 0.107364,-0.141706 0.185528,-0.188524 0.0781641,-0.0469074 0.165495,-0.0703835 0.261993,-0.0703835 0.059741,0 0.117514,0.00983759 0.173276,0.0295575 0.0557165,0.0197199 0.106648,0.0486066 0.15284,0.0866602l0 -0.505607 0.150918 -0.0346999 0 1.46178 -0.148816 0 0 -0.108035c-0.0897457,0.0829041 -0.199793,0.124356 -0.330319,0.124356zm0.0142645 -0.132539c0.0638996,0 0.123372,-0.0125653 0.178418,-0.0376511 0.0550458,-0.0251753 0.100254,-0.0601434 0.135535,-0.105039l0 -0.505563c-0.0352812,-0.043509 -0.0804894,-0.0778511 -0.135535,-0.102982 -0.0550458,-0.0251306 -0.114518,-0.0376959 -0.178418,-0.0376959 -0.0706071,0 -0.134864,0.0169922 -0.192593,0.0509766 -0.0577735,0.0339397 -0.103339,0.0805341 -0.136608,0.139604 -0.0333584,0.0591597 -0.0499928,0.126055 -0.0499928,0.200821 0,0.0747657 0.0166345,0.142019 0.0499928,0.201849 0.0332689,0.0598304 0.0788349,0.107364 0.136608,0.14269 0.0577288,0.0353706 0.121986,0.0529888 0.192593,0.0529888zm0.721721 0.116218l0 -1.02137 0.150873 0 0 1.02137 -0.150873 0zm0.0754811 -1.21704c-0.0271875,0 -0.0509766,-0.01024 -0.0713672,-0.0306307 -0.0204354,-0.0203459 -0.030586,-0.0448505 -0.030586,-0.0733795 0,-0.0271875 0.0101506,-0.0506189 0.030586,-0.0703388 0.0203906,-0.0197199 0.0441797,-0.0295575 0.0713672,-0.0295575 0.0284843,0 0.0526758,0.00983759 0.072351,0.0295575 0.0197199,0.0197199 0.0296022,0.043822 0.0296022,0.0723957 0,0.0271875 -0.00988231,0.0509766 -0.0296022,0.0713225 -0.0196752,0.0203906 -0.0438667,0.0306307 -0.072351,0.0306307zm0.805296 1.23542c-0.0964978,0 -0.184142,-0.0234761 -0.262977,-0.0703835 -0.0788796,-0.0468627 -0.141348,-0.110405 -0.18754,-0.190581 -0.0462814,-0.0801764 -0.069355,-0.169877 -0.069355,-0.269148 0,-0.0991808 0.0230736,-0.188524 0.069355,-0.268074 0.046192,-0.0794609 0.108661,-0.143003 0.18754,-0.190581 0.0788349,-0.0475782 0.166479,-0.0713672 0.262977,-0.0713672 0.0747657,0 0.146759,0.0139068 0.216069,0.0418098 0.069355,0.0278583 0.130527,0.0676111 0.183516,0.119258l-0.0958271 0.110047c-0.0407813,-0.0434195 -0.0872863,-0.0764649 -0.139649,-0.0988678 -0.0523181,-0.0224029 -0.10638,-0.0336267 -0.162052,-0.0336267 -0.0693103,0 -0.132226,0.0173052 -0.188569,0.0519604 -0.0563873,0.0346999 -0.101282,0.0815626 -0.134551,0.140678 -0.0333584,0.0591597 -0.0499928,0.125385 -0.0499928,0.198764 0,0.0734689 0.0166345,0.140007 0.0499928,0.199837 0.0332689,0.0598304 0.0784771,0.107051 0.135535,0.141706 0.057058,0.0346551 0.120287,0.0519604 0.189597,0.0519604 0.0557612,0 0.108392,-0.0108661 0.158027,-0.0326429 0.0495904,-0.0217321 0.0961401,-0.0536596 0.139604,-0.0957824l0.0938148 0.101953c-0.054375,0.0516026 -0.115547,0.0917132 -0.183471,0.120287 -0.0679688,0.0284843 -0.138665,0.0427935 -0.212045,0.0427935zm0.894997 0c-0.074721,0 -0.14032,-0.012923 -0.196707,-0.0387243 -0.056432,-0.025846 -0.100567,-0.0618427 -0.132494,-0.108035 -0.0319722,-0.0462814 -0.0479359,-0.099941 -0.0479359,-0.161113 0,-0.0964978 0.0366674,-0.17256 0.110092,-0.228322 0.0733795,-0.0557612 0.172605,-0.0835748 0.297677,-0.0835748 0.110047,0 0.209943,0.0231183 0.299644,0.0693103l0 -0.134596c0,-0.0814731 -0.0230736,-0.143003 -0.0693103,-0.1845 -0.046192,-0.0414073 -0.11349,-0.0621557 -0.201805,-0.0621557 -0.0503059,0 -0.100925,0.00715461 -0.151901,0.0214191 -0.0509766,0.0142645 -0.107006,0.0370251 -0.168178,0.0682818l-0.057058 -0.116173c0.0733795,-0.0353706 0.141304,-0.0611719 0.203817,-0.0774934 0.0625581,-0.0163215 0.125072,-0.0244598 0.18754,-0.0244598 0.129141,0 0.228724,0.0305412 0.298705,0.0917579 0.069981,0.0611719 0.104994,0.148816 0.104994,0.262977l0 0.687022 -0.146804 0 0 -0.0998963c-0.046192,0.0394398 -0.0968108,0.0689973 -0.151857,0.0887172 -0.0550458,0.0197199 -0.114518,0.0295575 -0.178418,0.0295575zm-0.232391 -0.311941c0,0.057058 0.0241468,0.103652 0.072351,0.139694 0.0482936,0.0359519 0.110449,0.0539726 0.186601,0.0539726 0.0611272,0 0.116888,-0.00947986 0.167105,-0.0284843 0.0503506,-0.0190939 0.0958718,-0.0489644 0.136608,-0.0897457l0 -0.191654c-0.0421228,-0.0284843 -0.0869732,-0.0492774 -0.134551,-0.0621557 -0.0475782,-0.012923 -0.101238,-0.0193622 -0.161068,-0.0193622 -0.0815626,0 -0.146401,0.017976 -0.194695,0.0540173 -0.0482042,0.0359966 -0.072351,0.0839325 -0.072351,0.143718zm0.96225 0.293563l0 -1.42708 0.150873 -0.0346999 0 1.46178 -0.150873 0zm1.33742 0.0203906c-0.112819,0 -0.220854,-0.0227159 -0.324149,-0.0682818 -0.103339,-0.0455212 -0.194337,-0.11112 -0.273217,-0.196707l0.103965 -0.108035c0.0734689,0.0787902 0.151946,0.137905 0.235476,0.177345 0.0836195,0.0393504 0.171621,0.0590703 0.264005,0.0590703 0.0747657,0 0.14108,-0.0118498 0.198809,-0.0356389 0.0577735,-0.0237891 0.102982,-0.0571027 0.13558,-0.0998963 0.0325982,-0.0428382 0.0489197,-0.0914002 0.0489197,-0.145775 0,-0.0733795 -0.0254883,-0.129767 -0.0764649,-0.169207 -0.0509319,-0.0393951 -0.134864,-0.0686395 -0.251798,-0.0876887l-0.205919 -0.0325982c-0.137234,-0.0230736 -0.238472,-0.0638996 -0.303713,-0.122344 -0.0652411,-0.0584442 -0.097884,-0.137905 -0.097884,-0.238517 0,-0.0788349 0.0211061,-0.148145 0.0632289,-0.207976 0.0421228,-0.059741 0.10088,-0.106335 0.176361,-0.139604 0.0753917,-0.0333584 0.162723,-0.0499928 0.261948,-0.0499928 0.100567,0 0.199479,0.0163215 0.296648,0.0489644 0.0971686,0.0325982 0.185841,0.0795056 0.266062,0.140633l-0.0897009 0.122344c-0.156328,-0.11823 -0.316055,-0.177345 -0.479135,-0.177345 -0.0679241,0 -0.127755,0.0105083 -0.179357,0.0315697 -0.0516921,0.0211061 -0.0918026,0.0503059 -0.120287,0.0876887 -0.0285737,0.0373828 -0.0428382,0.0812048 -0.0428382,0.131511 0,0.0665826 0.0224029,0.117559 0.0672533,0.15284 0.0448952,0.0353706 0.118945,0.0612166 0.22224,0.0775381l0.203862 0.0325982c0.156284,0.0258013 0.269818,0.069668 0.340425,0.131511 0.0706965,0.0618427 0.106022,0.148458 0.106022,0.259936 0,0.0829041 -0.0230736,0.156597 -0.0693103,0.221212 -0.046192,0.0645256 -0.110405,0.114832 -0.192638,0.150873 -0.0822333,0.0359519 -0.177032,0.0539726 -0.284396,0.0539726zm0.731872 -0.0203906l0 -1.02137 0.150873 0 0 1.02137 -0.150873 0zm0.0754811 -1.21704c-0.0271875,0 -0.0509766,-0.01024 -0.0713672,-0.0306307 -0.0204354,-0.0203459 -0.030586,-0.0448505 -0.030586,-0.0733795 0,-0.0271875 0.0101506,-0.0506189 0.030586,-0.0703388 0.0203906,-0.0197199 0.0441797,-0.0295575 0.0713672,-0.0295575 0.0284843,0 0.0526758,0.00983759 0.072351,0.0295575 0.0197199,0.0197199 0.0296022,0.043822 0.0296022,0.0723957 0,0.0271875 -0.00988231,0.0509766 -0.0296022,0.0713225 -0.0196752,0.0203906 -0.0438667,0.0306307 -0.072351,0.0306307zm0.332287 1.21704l0 -1.02137 0.150873 0 0 0.112104c0.0774934,-0.0883147 0.177345,-0.132494 0.299733,-0.132494 0.0719933,0 0.135893,0.0166345 0.191654,0.0499481 0.0556718,0.0332689 0.0991808,0.0784771 0.130438,0.135535 0.0421228,-0.0625134 0.0924286,-0.109018 0.150873,-0.139604 0.0584442,-0.030586 0.125027,-0.0458789 0.199748,-0.0458789 0.0747657,0 0.140007,0.0166345 0.195768,0.0499481 0.0556718,0.0332689 0.0995385,0.0795056 0.131466,0.138621 0.0319275,0.0591597 0.0479359,0.128068 0.0479359,0.206947l0 0.64624 -0.148816 0 0 -0.615699c0,-0.0910424 -0.0237891,-0.162723 -0.071412,-0.215085 -0.0475334,-0.0522734 -0.112104,-0.0784771 -0.193666,-0.0784771 -0.0556718,0 -0.106648,0.0139515 -0.152885,0.0418098 -0.046192,0.027903 -0.0856318,0.0696233 -0.11823,0.125385 0.0027277,0.0149353 0.00505294,0.0302729 0.00710989,0.0458342 0.00210167,0.0156954 0.00308543,0.0323299 0.00308543,0.0499928l0 0.64624 -0.148861 0 0 -0.615699c0,-0.0910424 -0.0237891,-0.162723 -0.0713672,-0.215085 -0.0475334,-0.0522734 -0.111433,-0.0784771 -0.191609,-0.0784771 -0.054375,0 -0.103652,0.0125653 -0.147787,0.0377406 -0.0441797,0.0251306 -0.0819203,0.0621557 -0.113177,0.11112l0 0.760401 -0.150873 0zm2.14267 0.0203906c-0.0774487,0 -0.146088,-0.0166345 -0.205919,-0.0499034 -0.0597857,-0.0333137 -0.106335,-0.0795503 -0.139604,-0.138665 -0.0333584,-0.0591597 -0.0499928,-0.128068 -0.0499928,-0.206947l0 -0.64624 0.148861 0 0 0.615699c0,0.0909977 0.0258013,0.162767 0.0774487,0.215041 0.0516921,0.0523628 0.121002,0.0785219 0.207931,0.0785219 0.0612166,0 0.115905,-0.0139515 0.164109,-0.041765 0.0482936,-0.027903 0.087331,-0.066985 0.117291,-0.117291l0 -0.750206 0.150828 0 0 1.02137 -0.150828 0 0 -0.11823c-0.0802211,0.0924286 -0.186914,0.138621 -0.320124,0.138621zm0.727803 -0.0203906l0 -1.42708 0.150918 -0.0346999 0 1.46178 -0.150918 0zm0.729904 0.0183784c-0.074721,0 -0.14032,-0.012923 -0.196707,-0.0387243 -0.056432,-0.025846 -0.100567,-0.0618427 -0.132494,-0.108035 -0.0319722,-0.0462814 -0.0479359,-0.099941 -0.0479359,-0.161113 0,-0.0964978 0.0366674,-0.17256 0.110092,-0.228322 0.0733795,-0.0557612 0.172605,-0.0835748 0.297632,-0.0835748 0.110092,0 0.209988,0.0231183 0.299689,0.0693103l0 -0.134596c0,-0.0814731 -0.0230736,-0.143003 -0.0693103,-0.1845 -0.046192,-0.0414073 -0.11349,-0.0621557 -0.201805,-0.0621557 -0.0503059,0 -0.100925,0.00715461 -0.151901,0.0214191 -0.0509766,0.0142645 -0.107006,0.0370251 -0.168178,0.0682818l-0.0571027 -0.116173c0.0733795,-0.0353706 0.141348,-0.0611719 0.203862,-0.0774934 0.0625581,-0.0163215 0.125072,-0.0244598 0.18754,-0.0244598 0.129141,0 0.228724,0.0305412 0.298705,0.0917579 0.069981,0.0611719 0.104994,0.148816 0.104994,0.262977l0 0.687022 -0.146804 0 0 -0.0998963c-0.046192,0.0394398 -0.0968108,0.0689973 -0.151857,0.0887172 -0.0550458,0.0197199 -0.114518,0.0295575 -0.178418,0.0295575zm-0.232391 -0.311941c0,0.057058 0.0241468,0.103652 0.072351,0.139694 0.0482936,0.0359519 0.110449,0.0539726 0.186601,0.0539726 0.0611272,0 0.116844,-0.00947986 0.167105,-0.0284843 0.0503059,-0.0190939 0.0958718,-0.0489644 0.136608,-0.0897457l0 -0.191654c-0.0421228,-0.0284843 -0.087018,-0.0492774 -0.134551,-0.0621557 -0.0475782,-0.012923 -0.101238,-0.0193622 -0.161068,-0.0193622 -0.0815626,0 -0.146401,0.017976 -0.194695,0.0540173 -0.0482042,0.0359966 -0.072351,0.0839325 -0.072351,0.143718zm1.36389 0.313953c-0.0883594,0 -0.156284,-0.0210167 -0.203862,-0.0631394 -0.0475782,-0.0422122 -0.0713672,-0.103339 -0.0713672,-0.183516l0 -0.666676 -0.220183 0 0 -0.128425 0.220183 0 0 -0.258907 0.148816 -0.0387243 0 0.297632 0.307872 0 0 0.128425 -0.307872 0 0 0.627951c0,0.0543303 0.0122523,0.0934124 0.0366674,0.117201 0.0245045,0.0237891 0.0646151,0.0356836 0.120287,0.0356836 0.0285737,0 0.054062,-0.00205695 0.0764649,-0.00612614 0.0224923,-0.00406919 0.0465944,-0.0108661 0.0723957,-0.0203906l0 0.132539c-0.0258013,0.00952458 -0.0546881,0.0163215 -0.0866155,0.0203906 -0.0319722,0.00406919 -0.0628711,0.00608142 -0.0927864,0.00608142zm0.342482 -0.0203906l0 -1.02137 0.150873 0 0 1.02137 -0.150873 0zm0.0754811 -1.21704c-0.0271875,0 -0.0509766,-0.01024 -0.0713672,-0.0306307 -0.0204354,-0.0203459 -0.030586,-0.0448505 -0.030586,-0.0733795 0,-0.0271875 0.0101506,-0.0506189 0.030586,-0.0703388 0.0203906,-0.0197199 0.0441797,-0.0295575 0.0713672,-0.0295575 0.0284843,0 0.0526758,0.00983759 0.0723063,0.0295575 0.0197199,0.0197199 0.0296022,0.043822 0.0296022,0.0723957 0,0.0271875 -0.00988231,0.0509766 -0.0296022,0.0713225 -0.0196305,0.0203906 -0.043822,0.0306307 -0.0723063,0.0306307zm0.807308 1.23743c-0.0964978,0 -0.184455,-0.0234314 -0.264005,-0.0702941 -0.0794609,-0.0469074 -0.142377,-0.110449 -0.188569,-0.19067 -0.0462367,-0.0801764 -0.0693103,-0.169877 -0.0693103,-0.269103 0,-0.0992255 0.0230736,-0.188882 0.0693103,-0.269103 0.046192,-0.0801764 0.109108,-0.143718 0.188569,-0.190626 0.0795503,-0.0468627 0.167507,-0.0702941 0.264005,-0.0702941 0.097884,0 0.186199,0.0234314 0.265034,0.0702941 0.0788349,0.0469074 0.141393,0.110449 0.187585,0.190626 0.046192,0.0802211 0.0693103,0.169877 0.0693103,0.269103 0,0.0992255 -0.0231183,0.188926 -0.0693103,0.269103 -0.046192,0.0802211 -0.10875,0.143763 -0.187585,0.19067 -0.0788349,0.0468627 -0.16715,0.0702941 -0.265034,0.0702941zm0 -0.134551c0.0693103,0 0.132181,-0.0176629 0.188569,-0.0530336 0.056432,-0.0352812 0.101282,-0.0828593 0.134551,-0.14269 0.0333137,-0.0597857 0.0499928,-0.126368 0.0499928,-0.199793 0,-0.074721 -0.0166792,-0.141661 -0.0499928,-0.200821 -0.0332689,-0.059115 -0.0781194,-0.106335 -0.134551,-0.141661 -0.0563873,-0.0353706 -0.119258,-0.0529888 -0.188569,-0.0529888 -0.0693103,0 -0.132181,0.0176182 -0.188524,0.0529888 -0.056432,0.0353259 -0.101282,0.0825463 -0.134596,0.141661 -0.0333137,0.0591597 -0.0499481,0.1261 -0.0499481,0.200821 0,0.0734242 0.0166345,0.140007 0.0499481,0.199793 0.0333137,0.0598304 0.0781641,0.107409 0.134596,0.14269 0.0563426,0.0353706 0.119214,0.0530336 0.188524,0.0530336zm0.731872 0.114161l0 -1.02137 0.150918 0 0 0.120287c0.0801764,-0.0938148 0.18754,-0.140678 0.322136,-0.140678 0.0774039,0 0.14573,0.0166345 0.204845,0.0499481 0.0591597,0.0332689 0.105352,0.0795056 0.138621,0.138621 0.0333137,0.0591597 0.0499928,0.128068 0.0499928,0.206947l0 0.64624 -0.148861 0 0 -0.615699c0,-0.0910424 -0.0254883,-0.162723 -0.0764202,-0.215085 -0.0509766,-0.0522734 -0.120645,-0.0784771 -0.209004,-0.0784771 -0.0611272,0 -0.115502,0.0136385 -0.16308,0.040826 -0.0475782,0.0271875 -0.0869732,0.0659119 -0.11823,0.116128l0 0.752307 -0.150918 0zm1.4455 0.0203906c-0.0842903,0 -0.163438,-0.0139068 -0.237533,-0.0418098 -0.0740949,-0.0278136 -0.138263,-0.0668956 -0.192638,-0.117201l0.0917579 -0.097884c0.0475782,0.043509 0.0998963,0.0771804 0.156999,0.100969 0.057058,0.0237891 0.115502,0.0356389 0.175288,0.0356389 0.0815626,0 0.148145,-0.0169475 0.199837,-0.0509766 0.0516026,-0.0339397 0.0774487,-0.0781641 0.0774487,-0.13245 0,-0.0448952 -0.015293,-0.0798633 -0.0458789,-0.105039 -0.030586,-0.0251306 -0.0784771,-0.0424358 -0.143718,-0.0519604l-0.17739 -0.0245045c-0.101908,-0.0149353 -0.177703,-0.0455212 -0.227293,-0.0917132 -0.0496351,-0.0462367 -0.0744527,-0.10875 -0.0744527,-0.187585 0,-0.057058 0.0163215,-0.108035 0.0489644,-0.152885 0.0325982,-0.0448952 0.0778064,-0.0801764 0.135535,-0.106022 0.0577735,-0.0258013 0.124043,-0.0387243 0.198764,-0.0387243 0.0747657,0 0.144791,0.0108661 0.210033,0.0326429 0.0651964,0.0217321 0.129096,0.0556718 0.191654,0.101864l-0.0795503 0.101953c-0.057058,-0.0393951 -0.112462,-0.0682818 -0.166121,-0.0866155 -0.0536596,-0.0183337 -0.108392,-0.0275005 -0.164154,-0.0275005 -0.0706518,0 -0.127755,0.015606 -0.171219,0.046818 -0.043509,0.0313461 -0.0652858,0.0720827 -0.0652858,0.122389 0,0.046192 0.0150247,0.0812048 0.0448952,0.104949 0.0298705,0.0237891 0.0781641,0.0404236 0.144702,0.0499928l0.177434 0.0244598c0.101864,0.013549 0.178329,0.043509 0.229305,0.0897009 0.0509766,0.046192 0.0764649,0.109376 0.0764649,0.189597 0,0.0584442 -0.0183337,0.111433 -0.0550458,0.159011 -0.0366674,0.0475334 -0.0859448,0.084961 -0.147787,0.112149 -0.0618427,0.0271875 -0.132181,0.0407366 -0.211016,0.0407366zm1.3435 -0.00201223c-0.0747657,0 -0.14032,-0.012923 -0.196752,-0.0387243 -0.0563873,-0.025846 -0.100567,-0.0618427 -0.13245,-0.108035 -0.0319722,-0.0462814 -0.0479806,-0.099941 -0.0479806,-0.161113 0,-0.0964978 0.0367121,-0.17256 0.110136,-0.228322 0.0733795,-0.0557612 0.17256,-0.0835748 0.297632,-0.0835748 0.110092,0 0.209988,0.0231183 0.299689,0.0693103l0 -0.134596c0,-0.0814731 -0.0230736,-0.143003 -0.0693103,-0.1845 -0.046192,-0.0414073 -0.11349,-0.0621557 -0.201805,-0.0621557 -0.0503059,0 -0.100969,0.00715461 -0.151946,0.0214191 -0.0509319,0.0142645 -0.106961,0.0370251 -0.168178,0.0682818l-0.057058 -0.116173c0.0733795,-0.0353706 0.141348,-0.0611719 0.203817,-0.0774934 0.0625581,-0.0163215 0.125072,-0.0244598 0.187585,-0.0244598 0.129141,0 0.228724,0.0305412 0.298705,0.0917579 0.0699363,0.0611719 0.104994,0.148816 0.104994,0.262977l0 0.687022 -0.146804 0 0 -0.0998963c-0.046192,0.0394398 -0.0968555,0.0689973 -0.151857,0.0887172 -0.0550458,0.0197199 -0.114518,0.0295575 -0.178418,0.0295575zm-0.232391 -0.311941c0,0.057058 0.0241021,0.103652 0.072351,0.139694 0.0482489,0.0359519 0.110449,0.0539726 0.186556,0.0539726 0.0611272,0 0.116888,-0.00947986 0.16715,-0.0284843 0.0503059,-0.0190939 0.0958271,-0.0489644 0.136608,-0.0897457l0 -0.191654c-0.0421228,-0.0284843 -0.087018,-0.0492774 -0.134596,-0.0621557 -0.0475334,-0.012923 -0.101193,-0.0193622 -0.161023,-0.0193622 -0.0815626,0 -0.146446,0.017976 -0.194695,0.0540173 -0.0482489,0.0359966 -0.072351,0.0839325 -0.072351,0.143718zm0.96225 0.293563l0 -1.02137 0.150873 0 0 0.120287c0.0801764,-0.0938148 0.18754,-0.140678 0.322136,-0.140678 0.0774487,0 0.145775,0.0166345 0.204845,0.0499481 0.0591597,0.0332689 0.105352,0.0795056 0.138665,0.138621 0.0332689,0.0591597 0.0499481,0.128068 0.0499481,0.206947l0 0.64624 -0.148816 0 0 -0.615699c0,-0.0910424 -0.0254883,-0.162723 -0.0764649,-0.215085 -0.0509766,-0.0522734 -0.120645,-0.0784771 -0.209004,-0.0784771 -0.0611272,0 -0.115502,0.0136385 -0.16308,0.040826 -0.0475334,0.0271875 -0.0869732,0.0659119 -0.11823,0.116128l0 0.752307 -0.150873 0zm1.58609 0.0163215c-0.0951116,0 -0.181727,-0.0234314 -0.259891,-0.0703388 -0.0781641,-0.0468627 -0.140007,-0.110092 -0.185528,-0.189597 -0.0455212,-0.0795056 -0.0682818,-0.168849 -0.0682818,-0.268119 0,-0.0991808 0.0227606,-0.188211 0.0682818,-0.267046 0.0455212,-0.0787902 0.107364,-0.141706 0.185528,-0.188524 0.0781641,-0.0469074 0.165495,-0.0703835 0.261993,-0.0703835 0.0597857,0 0.117559,0.00983759 0.173276,0.0295575 0.0557165,0.0197199 0.106693,0.0486066 0.152885,0.0866602l0 -0.505607 0.150873 -0.0346999 0 1.46178 -0.148816 0 0 -0.108035c-0.0897457,0.0829041 -0.199793,0.124356 -0.330319,0.124356zm0.0143092 -0.132539c0.0638549,0 0.123372,-0.0125653 0.178373,-0.0376511 0.0550458,-0.0251753 0.100254,-0.0601434 0.13558,-0.105039l0 -0.505563c-0.0353259,-0.043509 -0.0805341,-0.0778511 -0.13558,-0.102982 -0.0550011,-0.0251306 -0.114518,-0.0376959 -0.178373,-0.0376959 -0.0706518,0 -0.134909,0.0169922 -0.192638,0.0509766 -0.0577735,0.0339397 -0.103295,0.0805341 -0.136608,0.139604 -0.0333137,0.0591597 -0.0499481,0.126055 -0.0499481,0.200821 0,0.0747657 0.0166345,0.142019 0.0499481,0.201849 0.0333137,0.0598304 0.0788349,0.107364 0.136608,0.14269 0.0577288,0.0353706 0.121986,0.0529888 0.192638,0.0529888zm1.18856 0.116218l0 -1.42708 0.156999 0 0 1.42708 -0.156999 0zm0.442379 0l0 -1.02137 0.150873 0 0 0.112104c0.0774934,-0.0883147 0.177345,-0.132494 0.299733,-0.132494 0.0719933,0 0.135893,0.0166345 0.191609,0.0499481 0.0557165,0.0332689 0.0992255,0.0784771 0.130482,0.135535 0.0421228,-0.0625134 0.0924286,-0.109018 0.150873,-0.139604 0.0584442,-0.030586 0.124982,-0.0458789 0.199748,-0.0458789 0.0747657,0 0.140007,0.0166345 0.195768,0.0499481 0.0556718,0.0332689 0.0994938,0.0795056 0.131466,0.138621 0.0319275,0.0591597 0.0478912,0.128068 0.0478912,0.206947l0 0.64624 -0.148771 0 0 -0.615699c0,-0.0910424 -0.0237891,-0.162723 -0.071412,-0.215085 -0.0475782,-0.0522734 -0.112104,-0.0784771 -0.193666,-0.0784771 -0.0556718,0 -0.106648,0.0139515 -0.152885,0.0418098 -0.046192,0.027903 -0.0856318,0.0696233 -0.11823,0.125385 0.00268298,0.0149353 0.00505294,0.0302729 0.00710989,0.0458342 0.00205695,0.0156954 0.00304071,0.0323299 0.00304071,0.0499928l0 0.64624 -0.148816 0 0 -0.615699c0,-0.0910424 -0.0237891,-0.162723 -0.0713672,-0.215085 -0.0475334,-0.0522734 -0.111433,-0.0784771 -0.191609,-0.0784771 -0.054375,0 -0.103652,0.0125653 -0.147832,0.0377406 -0.044135,0.0251306 -0.0818756,0.0621557 -0.113132,0.11112l0 0.760401 -0.150873 0zm2.07336 0.0183784c-0.0747657,0 -0.14032,-0.012923 -0.196752,-0.0387243 -0.0563873,-0.025846 -0.100567,-0.0618427 -0.13245,-0.108035 -0.0319722,-0.0462814 -0.0479806,-0.099941 -0.0479806,-0.161113 0,-0.0964978 0.0367121,-0.17256 0.110136,-0.228322 0.0733795,-0.0557612 0.17256,-0.0835748 0.297632,-0.0835748 0.110092,0 0.209988,0.0231183 0.299689,0.0693103l0 -0.134596c0,-0.0814731 -0.0230736,-0.143003 -0.0693103,-0.1845 -0.046192,-0.0414073 -0.11349,-0.0621557 -0.201805,-0.0621557 -0.0503059,0 -0.100969,0.00715461 -0.151946,0.0214191 -0.0509319,0.0142645 -0.106961,0.0370251 -0.168178,0.0682818l-0.057058 -0.116173c0.0733795,-0.0353706 0.141348,-0.0611719 0.203817,-0.0774934 0.0625581,-0.0163215 0.125072,-0.0244598 0.187585,-0.0244598 0.129141,0 0.228724,0.0305412 0.29866,0.0917579 0.069981,0.0611719 0.105039,0.148816 0.105039,0.262977l0 0.687022 -0.146804 0 0 -0.0998963c-0.046192,0.0394398 -0.0968555,0.0689973 -0.151901,0.0887172 -0.0550011,0.0197199 -0.114518,0.0295575 -0.178373,0.0295575zm-0.232391 -0.311941c0,0.057058 0.0241021,0.103652 0.072351,0.139694 0.0482489,0.0359519 0.110449,0.0539726 0.186556,0.0539726 0.0611272,0 0.116888,-0.00947986 0.16715,-0.0284843 0.0503059,-0.0190939 0.0958271,-0.0489644 0.136608,-0.0897457l0 -0.191654c-0.0421228,-0.0284843 -0.087018,-0.0492774 -0.134596,-0.0621557 -0.0475334,-0.012923 -0.101193,-0.0193622 -0.161023,-0.0193622 -0.0815626,0 -0.146446,0.017976 -0.194695,0.0540173 -0.0482489,0.0359966 -0.072351,0.0839325 -0.072351,0.143718zm1.45967 0.72986c-0.0706965,0 -0.140633,-0.00916685 -0.209943,-0.0275453 -0.069355,-0.0183337 -0.132539,-0.0444927 -0.189642,-0.0784771l0.0652858 -0.11823c0.0611272,0.0325982 0.117917,0.0563873 0.17019,0.0713225 0.0523628,0.0150247 0.105039,0.0224923 0.158027,0.0224923 0.0964978,0 0.169877,-0.0231631 0.220183,-0.069355 0.0502611,-0.0462367 0.0754364,-0.114161 0.0754364,-0.203862l0 -0.14269c-0.0937701,0.0788349 -0.201849,0.118185 -0.324193,0.118185 -0.0937254,0 -0.179357,-0.0230736 -0.256851,-0.0693103 -0.0774487,-0.046192 -0.138978,-0.109018 -0.1845,-0.188569 -0.0455659,-0.0795056 -0.0682818,-0.168178 -0.0682818,-0.266062 0,-0.0978393 0.0227159,-0.186512 0.0682818,-0.266017 0.0455212,-0.0795056 0.107051,-0.142377 0.1845,-0.188569 0.0774934,-0.0462367 0.164467,-0.0693103 0.26092,-0.0693103 0.0584889,0 0.115234,0.0101506 0.17028,0.030586 0.0550458,0.0203906 0.105665,0.0502611 0.151857,0.0897009l0 -0.101953 0.148861 0 0 1.052c0,0.130438 -0.0380536,0.230647 -0.114205,0.300717 -0.0761072,0.0699363 -0.184813,0.104949 -0.326206,0.104949zm-0.0224029 -0.560608c0.0652411,0 0.125027,-0.0122523 0.179402,-0.0367121 0.054375,-0.0245045 0.0985101,-0.0591597 0.132539,-0.103965l0 -0.501538c-0.0340291,-0.043509 -0.0785219,-0.0774934 -0.133523,-0.101908 -0.0550458,-0.0245045 -0.114518,-0.0367121 -0.178418,-0.0367121 -0.0706965,0 -0.134238,0.0169922 -0.190626,0.0509766 -0.056432,0.0339397 -0.100925,0.0805341 -0.133523,0.139604 -0.0326429,0.0591597 -0.0489644,0.125385 -0.0489644,0.198764 0,0.0733795 0.0166792,0.139694 0.0499928,0.198809 0.0332689,0.0591597 0.0781641,0.105978 0.134551,0.140633 0.0563873,0.0346551 0.119258,0.0520498 0.188569,0.0520498zm0.71962 0.124311l0 -1.02137 0.150873 0 0 1.02137 -0.150873 0zm0.0754811 -1.21704c-0.0271875,0 -0.0509766,-0.01024 -0.0713672,-0.0306307 -0.0203906,-0.0203459 -0.030586,-0.0448505 -0.030586,-0.0733795 0,-0.0271875 0.0101953,-0.0506189 0.030586,-0.0703388 0.0203906,-0.0197199 0.0441797,-0.0295575 0.0713672,-0.0295575 0.028529,0 0.0526758,0.00983759 0.072351,0.0295575 0.0197199,0.0197199 0.0296022,0.043822 0.0296022,0.0723957 0,0.0271875 -0.00988231,0.0509766 -0.0296022,0.0713225 -0.0196752,0.0203906 -0.043822,0.0306307 -0.072351,0.0306307zm0.332287 1.21704l0 -1.02137 0.150873 0 0 0.120287c0.0802211,-0.0938148 0.187585,-0.140678 0.322136,-0.140678 0.0774487,0 0.145775,0.0166345 0.20489,0.0499481 0.0591597,0.0332689 0.105352,0.0795056 0.138621,0.138621 0.0332689,0.0591597 0.0499928,0.128068 0.0499928,0.206947l0 0.64624 -0.148861 0 0 -0.615699c0,-0.0910424 -0.0254883,-0.162723 -0.0764649,-0.215085 -0.0509319,-0.0522734 -0.1206,-0.0784771 -0.208959,-0.0784771 -0.0611272,0 -0.115502,0.0136385 -0.16308,0.040826 -0.0475782,0.0271875 -0.087018,0.0659119 -0.118275,0.116128l0 0.752307 -0.150873 0zm1.61672 0.436297c-0.0706965,0 -0.140633,-0.00916685 -0.209988,-0.0275453 -0.0693103,-0.0183337 -0.132494,-0.0444927 -0.189597,-0.0784771l0.0652858 -0.11823c0.0611272,0.0325982 0.117917,0.0563873 0.17019,0.0713225 0.0523628,0.0150247 0.105039,0.0224923 0.158027,0.0224923 0.0964978,0 0.169877,-0.0231631 0.220183,-0.069355 0.0502611,-0.0462367 0.0754364,-0.114161 0.0754364,-0.203862l0 -0.14269c-0.0937701,0.0788349 -0.201849,0.118185 -0.324193,0.118185 -0.0937701,0 -0.179357,-0.0230736 -0.256895,-0.0693103 -0.0774487,-0.046192 -0.138934,-0.109018 -0.184455,-0.188569 -0.0455659,-0.0795056 -0.0682818,-0.168178 -0.0682818,-0.266062 0,-0.0978393 0.0227159,-0.186512 0.0682818,-0.266017 0.0455212,-0.0795056 0.107006,-0.142377 0.184455,-0.188569 0.0775381,-0.0462367 0.164511,-0.0693103 0.260964,-0.0693103 0.0584889,0 0.115234,0.0101506 0.17028,0.030586 0.0550458,0.0203906 0.105665,0.0502611 0.151857,0.0897009l0 -0.101953 0.148861 0 0 1.052c0,0.130438 -0.0380983,0.230647 -0.114205,0.300717 -0.0761072,0.0699363 -0.184813,0.104949 -0.326206,0.104949zm-0.0224029 -0.560608c0.0652411,0 0.125027,-0.0122523 0.179402,-0.0367121 0.054375,-0.0245045 0.0985101,-0.0591597 0.132539,-0.103965l0 -0.501538c-0.0340291,-0.043509 -0.0785219,-0.0774934 -0.133523,-0.101908 -0.0550458,-0.0245045 -0.114518,-0.0367121 -0.178418,-0.0367121 -0.0706965,0 -0.134238,0.0169922 -0.190626,0.0509766 -0.056432,0.0339397 -0.100925,0.0805341 -0.133523,0.139604 -0.0326429,0.0591597 -0.0489644,0.125385 -0.0489644,0.198764 0,0.0733795 0.0166345,0.139694 0.0499928,0.198809 0.0332689,0.0591597 0.0781641,0.105978 0.134551,0.140633 0.0563873,0.0346551 0.119258,0.0520498 0.188569,0.0520498zm1.1865 0.124311l0 -1.42708 0.156954 0 0 1.28644 0.850147 0 0 0.140633 -1.0071 0z"/>
   <path id="_351608104" class="fil1" d="M50.6074 10.193c-0.074721,0 -0.14032,-0.012923 -0.196752,-0.0387243 -0.0563873,-0.025846 -0.100567,-0.0618427 -0.13245,-0.108035 -0.0319722,-0.0462814 -0.0479359,-0.099941 -0.0479359,-0.161113 0,-0.0964978 0.0366674,-0.17256 0.110092,-0.228322 0.0733795,-0.0557612 0.172605,-0.0835748 0.297632,-0.0835748 0.110092,0 0.209988,0.0231183 0.299689,0.0693103l0 -0.134596c0,-0.0814731 -0.0230736,-0.143003 -0.0693103,-0.1845 -0.046192,-0.0414073 -0.11349,-0.0621557 -0.201805,-0.0621557 -0.0503059,0 -0.100925,0.00715461 -0.151901,0.0214191 -0.0509766,0.0142645 -0.107006,0.0370251 -0.168178,0.0682818l-0.0571027 -0.116173c0.0733795,-0.0353706 0.141348,-0.0611719 0.203862,-0.0774934 0.0625581,-0.0163215 0.125027,-0.0244598 0.18754,-0.0244598 0.129141,0 0.228724,0.0305412 0.298705,0.0917579 0.069981,0.0611719 0.104994,0.148816 0.104994,0.262977l0 0.687022 -0.146804 0 0 -0.0998963c-0.046192,0.0394398 -0.0968108,0.0689973 -0.151857,0.0887172 -0.0550458,0.0197199 -0.114518,0.0295575 -0.178418,0.0295575zm-0.232391 -0.311941c0,0.057058 0.0241468,0.103652 0.072351,0.139694 0.0482936,0.0359519 0.110449,0.0539726 0.186601,0.0539726 0.0611272,0 0.116844,-0.00947986 0.167105,-0.0284843 0.0503059,-0.0190939 0.0958718,-0.0489644 0.136608,-0.0897457l0 -0.191654c-0.0421228,-0.0284843 -0.087018,-0.0492774 -0.134551,-0.0621557 -0.0475782,-0.012923 -0.101238,-0.0193622 -0.161068,-0.0193622 -0.0815626,0 -0.146401,0.017976 -0.194695,0.0540173 -0.0482042,0.0359966 -0.072351,0.0839325 -0.072351,0.143718zm0.96225 0.293563l0 -1.42708 0.150873 -0.0346999 0 0.548446c0.087018,-0.0828593 0.196394,-0.124356 0.328218,-0.124356 0.0964978,0 0.183516,0.0234761 0.260964,0.0703835 0.0774934,0.046818 0.138978,0.109734 0.1845,0.188524 0.0455212,0.0788349 0.0683265,0.167865 0.0683265,0.267046 0,0.0992702 -0.0228053,0.188613 -0.0683265,0.268119 -0.0455212,0.0795056 -0.107006,0.142734 -0.1845,0.189597 -0.0774487,0.0469074 -0.165093,0.0703388 -0.262977,0.0703388 -0.0598304,0 -0.117917,-0.0101953 -0.174349,-0.030586 -0.0563426,-0.0203906 -0.107677,-0.0495904 -0.153869,-0.087644l0 0.101908 -0.148861 0zm0.464826 -0.116218c0.0720827,0 0.136608,-0.0173052 0.193711,-0.0519604 0.057058,-0.0346551 0.102266,-0.0815626 0.13558,-0.140633 0.0332689,-0.0591597 0.0499034,-0.1261 0.0499034,-0.200866 0,-0.074721 -0.0166345,-0.141974 -0.0499034,-0.201805 -0.0333137,-0.0598304 -0.0785219,-0.107051 -0.13558,-0.141706 -0.0571027,-0.0346551 -0.121628,-0.0519604 -0.193711,-0.0519604 -0.0638996,0 -0.123328,0.0125653 -0.178329,0.0376959 -0.0550905,0.0251306 -0.100254,0.0601434 -0.135625,0.104994l0 0.505607c0.0353706,0.0434643 0.0808918,0.0778064 0.136608,0.102982 0.0557612,0.0250859 0.114832,0.0376511 0.177345,0.0376511zm1.21306 0.136608c-0.0964978,0 -0.1845,-0.0234314 -0.264005,-0.0702941 -0.0795056,-0.0469074 -0.142377,-0.110449 -0.188569,-0.19067 -0.0462367,-0.0801764 -0.0693103,-0.169877 -0.0693103,-0.269103 0,-0.0992255 0.0230736,-0.188882 0.0693103,-0.269103 0.046192,-0.0801764 0.109063,-0.143718 0.188569,-0.190626 0.0795056,-0.0468627 0.167507,-0.0702941 0.264005,-0.0702941 0.097884,0 0.186199,0.0234314 0.265034,0.0702941 0.0787902,0.0469074 0.141348,0.110449 0.18754,0.190626 0.046192,0.0802211 0.0693103,0.169877 0.0693103,0.269103 0,0.0992255 -0.0231183,0.188926 -0.0693103,0.269103 -0.046192,0.0802211 -0.10875,0.143763 -0.18754,0.19067 -0.0788349,0.0468627 -0.16715,0.0702941 -0.265034,0.0702941zm0 -0.134551c0.0693103,0 0.132137,-0.0176629 0.188569,-0.0530336 0.0563873,-0.0352812 0.101282,-0.0828593 0.134551,-0.14269 0.0333137,-0.0597857 0.0499928,-0.126368 0.0499928,-0.199793 0,-0.074721 -0.0166792,-0.141661 -0.0499928,-0.200821 -0.0332689,-0.059115 -0.0781641,-0.106335 -0.134551,-0.141661 -0.056432,-0.0353706 -0.119258,-0.0529888 -0.188569,-0.0529888 -0.0693103,0 -0.132181,0.0176182 -0.188569,0.0529888 -0.0563873,0.0353259 -0.101282,0.0825463 -0.134551,0.141661 -0.0333137,0.0591597 -0.0499928,0.1261 -0.0499928,0.200821 0,0.0734242 0.0166792,0.140007 0.0499928,0.199793 0.0332689,0.0598304 0.0781641,0.107409 0.134551,0.14269 0.0563873,0.0353706 0.119258,0.0530336 0.188569,0.0530336zm0.731872 0.114161l0 -1.02137 0.150873 0 0 0.144747c0.0312567,-0.0530336 0.0710542,-0.0941279 0.119303,-0.123328 0.0482489,-0.0291998 0.103608,-0.043822 0.166166,-0.043822 0.0353259,0 0.0672981,0.00469521 0.0957824,0.0142198l0 0.138621c-0.0176182,-0.00675216 -0.0353259,-0.0115368 -0.0529888,-0.0142198 -0.0177077,-0.0027277 -0.0353259,-0.0041139 -0.0530336,-0.0041139 -0.0624687,0 -0.117201,0.0180207 -0.164109,0.054062 -0.0469074,0.0359966 -0.0839325,0.087957 -0.11112,0.155971l0 0.699229 -0.150873 0zm1.02754 0.0183784c-0.074721,0 -0.14032,-0.012923 -0.196707,-0.0387243 -0.056432,-0.025846 -0.100612,-0.0618427 -0.132494,-0.108035 -0.0319722,-0.0462814 -0.0479359,-0.099941 -0.0479359,-0.161113 0,-0.0964978 0.0366674,-0.17256 0.110092,-0.228322 0.0733795,-0.0557612 0.172605,-0.0835748 0.297632,-0.0835748 0.110092,0 0.209988,0.0231183 0.299689,0.0693103l0 -0.134596c0,-0.0814731 -0.0230736,-0.143003 -0.0693103,-0.1845 -0.046192,-0.0414073 -0.11349,-0.0621557 -0.201805,-0.0621557 -0.0503059,0 -0.100925,0.00715461 -0.151901,0.0214191 -0.0509766,0.0142645 -0.107006,0.0370251 -0.168178,0.0682818l-0.0571027 -0.116173c0.0733795,-0.0353706 0.141348,-0.0611719 0.203862,-0.0774934 0.0625581,-0.0163215 0.125027,-0.0244598 0.18754,-0.0244598 0.129141,0 0.228724,0.0305412 0.298705,0.0917579 0.069981,0.0611719 0.104994,0.148816 0.104994,0.262977l0 0.687022 -0.146804 0 0 -0.0998963c-0.046192,0.0394398 -0.0968108,0.0689973 -0.151857,0.0887172 -0.0550458,0.0197199 -0.114518,0.0295575 -0.178418,0.0295575zm-0.232391 -0.311941c0,0.057058 0.0241468,0.103652 0.072351,0.139694 0.0482936,0.0359519 0.110449,0.0539726 0.186601,0.0539726 0.0611272,0 0.116844,-0.00947986 0.167105,-0.0284843 0.0503059,-0.0190939 0.0958718,-0.0489644 0.136608,-0.0897457l0 -0.191654c-0.0421228,-0.0284843 -0.087018,-0.0492774 -0.134551,-0.0621557 -0.0475782,-0.012923 -0.101238,-0.0193622 -0.161068,-0.0193622 -0.0815626,0 -0.146401,0.017976 -0.194695,0.0540173 -0.0482042,0.0359966 -0.072351,0.0839325 -0.072351,0.143718zm1.36389 0.313953c-0.0883594,0 -0.156284,-0.0210167 -0.203862,-0.0631394 -0.0475782,-0.0422122 -0.0713672,-0.103339 -0.0713672,-0.183516l0 -0.666676 -0.220183 0 0 -0.128425 0.220183 0 0 -0.258907 0.148816 -0.0387243 0 0.297632 0.307872 0 0 0.128425 -0.307872 0 0 0.627951c0,0.0543303 0.0122523,0.0934124 0.0366674,0.117201 0.0245045,0.0237891 0.0646151,0.0356836 0.120287,0.0356836 0.0285737,0 0.054062,-0.00205695 0.0764649,-0.00612614 0.0224923,-0.00406919 0.0465944,-0.0108661 0.0723957,-0.0203906l0 0.132539c-0.0258013,0.00952458 -0.0546881,0.0163215 -0.0866155,0.0203906 -0.0319722,0.00406919 -0.0628711,0.00608142 -0.0927864,0.00608142zm0.817504 0c-0.0964978,0 -0.184455,-0.0234314 -0.264005,-0.0702941 -0.0794609,-0.0469074 -0.142377,-0.110449 -0.188569,-0.19067 -0.0462367,-0.0801764 -0.0693103,-0.169877 -0.0693103,-0.269103 0,-0.0992255 0.0230736,-0.188882 0.0693103,-0.269103 0.046192,-0.0801764 0.109108,-0.143718 0.188569,-0.190626 0.0795503,-0.0468627 0.167507,-0.0702941 0.264005,-0.0702941 0.097884,0 0.186199,0.0234314 0.265034,0.0702941 0.0788349,0.0469074 0.141393,0.110449 0.187585,0.190626 0.046192,0.0802211 0.0693103,0.169877 0.0693103,0.269103 0,0.0992255 -0.0231183,0.188926 -0.0693103,0.269103 -0.046192,0.0802211 -0.10875,0.143763 -0.187585,0.19067 -0.0788349,0.0468627 -0.16715,0.0702941 -0.265034,0.0702941zm0 -0.134551c0.069355,0 0.132181,-0.0176629 0.188569,-0.0530336 0.056432,-0.0352812 0.101282,-0.0828593 0.134596,-0.14269 0.0332689,-0.0597857 0.0499481,-0.126368 0.0499481,-0.199793 0,-0.074721 -0.0166792,-0.141661 -0.0499481,-0.200821 -0.0333137,-0.059115 -0.0781641,-0.106335 -0.134596,-0.141661 -0.0563873,-0.0353706 -0.119214,-0.0529888 -0.188569,-0.0529888 -0.0693103,0 -0.132181,0.0176182 -0.188524,0.0529888 -0.056432,0.0353259 -0.101282,0.0825463 -0.134596,0.141661 -0.0333137,0.0591597 -0.0499481,0.1261 -0.0499481,0.200821 0,0.0734242 0.0166345,0.140007 0.0499481,0.199793 0.0333137,0.0598304 0.0781641,0.107409 0.134596,0.14269 0.0563426,0.0353706 0.119214,0.0530336 0.188524,0.0530336zm0.731917 0.114161l0 -1.02137 0.150873 0 0 0.144747c0.0312567,-0.0530336 0.0710095,-0.0941279 0.119303,-0.123328 0.0482042,-0.0291998 0.103563,-0.043822 0.166121,-0.043822 0.0353259,0 0.0672981,0.00469521 0.0957824,0.0142198l0 0.138621c-0.0176182,-0.00675216 -0.0352812,-0.0115368 -0.0529888,-0.0142198 -0.0177077,-0.0027277 -0.0353259,-0.0041139 -0.0529888,-0.0041139 -0.0625134,0 -0.117246,0.0180207 -0.164109,0.054062 -0.0469074,0.0359966 -0.0839325,0.087957 -0.11112,0.155971l0 0.699229 -0.150873 0zm0.748238 0.436297c-0.0190939,0 -0.0370251,-0.000983759 -0.054062,-0.00304071 -0.0169922,-0.00205695 -0.0309437,-0.00442692 -0.0418098,-0.00710989l0 -0.136608c0.0231183,0.00541067 0.0516921,0.00813837 0.0856318,0.00813837 0.0897457,0 0.157714,-0.0530336 0.203906,-0.159011l0.0611719 -0.140678 -0.415906 -1.01935 0.16715 0 0.330275 0.837894 0.356792 -0.837894 0.16308 0 -0.509677 1.18038c-0.028529,0.0652858 -0.0590703,0.118275 -0.0917132,0.159011 -0.0326429,0.040826 -0.0697127,0.0706965 -0.11112,0.0897457 -0.041452,0.0190044 -0.0893432,0.028529 -0.143718,0.028529z"/>
   <path id="_351608752" class="fil2" d="M6.90447 10.0237c-0.134373,0.0626476 -0.276526,0.110762 -0.424492,0.142556 -0.502611,0.114697 -1.0346,0.0546881 -1.44988,-0.202878 -0.529575,-0.328352 -0.834317,-0.798768 -0.943291,-1.39676 -0.1481,-0.46022 -0.624553,-0.482489 -1.04887,-0.317218 -0.505563,0.197199 -1.07288,0.78741 -1.91592,0.61628 -0.735002,-0.141482 -1.23426,-1.04578 -1.1002,-1.83118 0.163036,-0.954693 1.27142,-1.40789 2.11853,-1.04556 0.501985,0.214772 0.771848,0.678436 1.00665,1.20622 0.218081,0.490046 0.818174,0.661444 1.12792,0.0971686l0.00125206 -0.00223582c0.34834,-0.676066 1.04377,-1.09698 1.80788,-1.0867 0.384292,-0.0181101 0.571966,0.0120287 0.914717,-0.211195 0.504132,-0.328173 0.696323,-1.04077 0.537758,-1.6033 -0.197736,-0.699006 -0.549832,-1.34538 -0.0963637,-2.0489 0.977722,-1.51696 3.27914,-0.645033 2.94895,1.1387 -0.156105,0.845138 -1.08419,0.996816 -1.7349,1.36684 -0.41537,0.23637 -0.714075,0.957868 -0.815492,1.55358 -0.133523,0.785308 0.260562,1.1798 0.220541,1.91654 -0.0418545,0.770462 -0.433391,1.38227 -1.1548,1.70803z"/>
  </g>
 </g>
</svg>
